<?xml version="1.0" encoding="utf-8"?>
<!-- Generator: Adobe Illustrator 28.3.0, SVG Export Plug-In . SVG Version: 6.00 Build 0)  -->
<svg version="1.1" id="Layer_1" xmlns="http://www.w3.org/2000/svg" xmlns:xlink="http://www.w3.org/1999/xlink" x="0px" y="0px"
	 viewBox="0 0 256 256" enable-background="new 0 0 256 256" xml:space="preserve">
<path d="M43.3,42.9c0,8.2,0,15.7,0,24.1c28.3,0,56.6-0.2,84.9,0.1c29.4,0.2,53.5,20.4,59.3,49.3c7.3,36.1-20.5,71.1-57.4,72
	c-12.6,0.3-25.1,0.1-38.3,0.1c0,16.2,0,32,0,48.2c-24.6,0-48.5,0-72.8,0c0-40.3,0-80.3,0-120.8c5.5-0.3,0-0.4,107-0.3
	c8.5,0,14.1,4.9,14.1,12.2c0,7.2-5.6,12.1-14.2,12.1c-27.6,0-55,0-82.6,0c0,24.2,0,48,0,72.2c7.6,0,15.3,0,23.6,0
	c0-15.7,0-31.5,0-48.1c2.5,0,4.3,0,6.2,0c18,0,36,0.1,54,0c16.3-0.1,29.8-9.5,35-24.2c5-14.2,0.7-30.2-10.8-39.9
	c-7.3-6.1-15.8-8.6-25.2-8.6l-106.9,0c0-24.2,0-48.2,0-72.7c36.5-0.6,73.1-0.1,109.6-0.2C184.4,18.6,237,63.9,237,126.8
	c0,54.1-37.9,100.2-91.2,108.5c-9.7,1.5-19.6,1.5-29.8,2.3c0-8.8,0-16.5,0-25.1c49.7,0.1,94.4-29.7,96.6-81.3
	c2.7-49.1-38.3-89.6-86.5-88.3L43.3,42.9z"/>
</svg>
